# Blender v2.92.0 OBJ File: ''
# www.blender.org
mtllib untitled.mtl
o Cylinder
v 0.000000 0.000000 -0.500000
v 0.000000 0.000000 -0.500000
v 0.097545 0.000000 -0.490393
v 0.097545 0.000000 -0.490393
v 0.191342 0.000000 -0.461940
v 0.191342 0.000000 -0.461940
v 0.277785 0.000000 -0.415735
v 0.277785 0.000000 -0.415735
v 0.353553 0.000000 -0.353553
v 0.353553 0.000000 -0.353553
v 0.415735 0.000000 -0.277785
v 0.415735 0.000000 -0.277785
v 0.461940 0.000000 -0.191342
v 0.461940 0.000000 -0.191342
v 0.490393 0.000000 -0.097545
v 0.490393 0.000000 -0.097545
v 0.500000 0.000000 -0.000000
v 0.500000 0.000000 -0.000000
v 0.490393 0.000000 0.097545
v 0.490393 0.000000 0.097545
v 0.461940 0.000000 0.191342
v 0.461940 0.000000 0.191342
v 0.415735 0.000000 0.277785
v 0.415735 0.000000 0.277785
v 0.353553 0.000000 0.353553
v 0.353553 0.000000 0.353553
v 0.277785 0.000000 0.415735
v 0.277785 0.000000 0.415735
v 0.191342 0.000000 0.461940
v 0.191342 0.000000 0.461940
v 0.097545 0.000000 0.490393
v 0.097545 0.000000 0.490393
v -0.000000 0.000000 0.500000
v -0.000000 0.000000 0.500000
v -0.097545 0.000000 0.490393
v -0.097545 0.000000 0.490393
v -0.191342 0.000000 0.461940
v -0.191342 0.000000 0.461940
v -0.277785 0.000000 0.415735
v -0.277785 0.000000 0.415735
v -0.353554 0.000000 0.353553
v -0.353554 0.000000 0.353553
v -0.415735 0.000000 0.277785
v -0.415735 0.000000 0.277785
v -0.461940 0.000000 0.191341
v -0.461940 0.000000 0.191341
v -0.490393 0.000000 0.097545
v -0.490393 0.000000 0.097545
v -0.500000 0.000000 -0.000000
v -0.500000 0.000000 -0.000000
v -0.490393 0.000000 -0.097546
v -0.490393 0.000000 -0.097546
v -0.461940 0.000000 -0.191342
v -0.461940 0.000000 -0.191342
v -0.415734 0.000000 -0.277786
v -0.415734 0.000000 -0.277786
v -0.353553 0.000000 -0.353554
v -0.353553 0.000000 -0.353554
v -0.277785 0.000000 -0.415735
v -0.277785 0.000000 -0.415735
v -0.191341 0.000000 -0.461940
v -0.191341 0.000000 -0.461940
v -0.097544 0.000000 -0.490393
v -0.097544 0.000000 -0.490393
vt 0.154722 0.708817
vt 0.119901 0.353553
vt 0.154722 0.353553
vt 0.119900 0.708817
vt 0.085748 0.353553
vt 0.085748 0.708817
vt 0.053576 0.353553
vt 0.053576 0.708817
vt 0.024623 0.353553
vt 0.024623 0.708817
vt 0.000000 0.353553
vt 1.000000 0.708817
vt 0.971047 0.353553
vt 1.000000 0.353553
vt 0.971047 0.708817
vt 0.938875 0.353553
vt 0.938875 0.708817
vt 0.904723 0.353553
vt 0.904722 0.708817
vt 0.869901 0.353553
vt 0.869901 0.708817
vt 0.835748 0.353553
vt 0.835748 0.708817
vt 0.803576 0.353553
vt 0.803576 0.708817
vt 0.774623 0.353553
vt 0.524623 0.708817
vt 0.495669 0.353553
vt 0.524623 0.353553
vt 0.495669 0.708817
vt 0.463498 0.353553
vt 0.463498 0.708817
vt 0.429345 0.353553
vt 0.429345 0.708817
vt 0.394523 0.353553
vt 0.394523 0.708817
vt 0.360370 0.353553
vt 0.360370 0.708817
vt 0.328199 0.353553
vt 0.328199 0.708817
vt 0.299246 0.353553
vt 0.299246 0.708817
vt 0.274623 0.353553
vt 0.774623 0.708817
vt 0.745669 0.353553
vt 0.774623 0.353553
vt 0.745669 0.708817
vt 0.713498 0.353553
vt 0.713498 0.708817
vt 0.679345 0.353553
vt 0.679345 0.708817
vt 0.644523 0.353553
vt 0.644523 0.708817
vt 0.610370 0.353553
vt 0.610370 0.708817
vt 0.578199 0.353553
vt 0.578199 0.708817
vt 0.549246 0.353553
vt 0.549246 0.708817
vt 0.524623 0.353553
vt 0.274623 0.708817
vt 0.250000 0.353553
vt 0.274623 0.353553
vt 0.250000 0.708817
vt 0.221046 0.353553
vt 0.512919 0.000000
vt 0.707107 0.159366
vt 0.547741 0.353553
vt 0.221046 0.708817
vt 0.188875 0.353553
vt 0.188875 0.708817
vt 0.093041 0.020119
vt 0.333434 0.093041
vt 0.260512 0.333434
vt 0.000000 0.708817
vt 0.774623 0.708817
vt 0.274623 0.708817
vt 0.524623 0.708817
vt 0.353553 0.194188
vt 0.353553 0.159366
vt 0.360347 0.125213
vt 0.373672 0.093042
vt 0.393018 0.064088
vt 0.417641 0.039465
vt 0.446595 0.020119
vt 0.478766 0.006793
vt 0.547741 0.000000
vt 0.581894 0.006793
vt 0.614065 0.020119
vt 0.643018 0.039465
vt 0.667641 0.064088
vt 0.686987 0.093041
vt 0.700313 0.125213
vt 0.707107 0.194188
vt 0.700313 0.228341
vt 0.686987 0.260512
vt 0.667641 0.289465
vt 0.643018 0.314088
vt 0.614065 0.333434
vt 0.581894 0.346760
vt 0.512919 0.353553
vt 0.478766 0.346760
vt 0.446595 0.333434
vt 0.417641 0.314088
vt 0.393019 0.289465
vt 0.373672 0.260512
vt 0.360347 0.228341
vt 0.020119 0.260512
vt 0.006793 0.228341
vt 0.000000 0.194188
vt 0.000000 0.159366
vt 0.006793 0.125213
vt 0.020119 0.093042
vt 0.039465 0.064088
vt 0.064088 0.039465
vt 0.125213 0.006793
vt 0.159366 0.000000
vt 0.194188 0.000000
vt 0.228340 0.006793
vt 0.260512 0.020119
vt 0.289465 0.039465
vt 0.314088 0.064088
vt 0.346760 0.125213
vt 0.353553 0.159366
vt 0.353553 0.194188
vt 0.346760 0.228341
vt 0.333434 0.260512
vt 0.314088 0.289465
vt 0.289465 0.314088
vt 0.228340 0.346760
vt 0.194188 0.353553
vt 0.159366 0.353553
vt 0.125213 0.346760
vt 0.093041 0.333434
vt 0.064088 0.314088
vt 0.039465 0.289465
vn 0.0000 0.0000 1.0000
vn 0.0000 1.0000 0.0000
vn 0.0000 -1.0000 0.0000
usemtl Material.002
s off
f 2/1/1 3/2/1 1/3/1
f 4/4/1 5/5/1 3/2/1
f 6/6/1 7/7/1 5/5/1
f 8/8/1 9/9/1 7/7/1
f 10/10/1 11/11/1 9/9/1
f 12/12/1 13/13/1 11/14/1
f 14/15/1 15/16/1 13/13/1
f 16/17/1 17/18/1 15/16/1
f 18/19/1 19/20/1 17/18/1
f 20/21/1 21/22/1 19/20/1
f 22/23/1 23/24/1 21/22/1
f 24/25/1 25/26/1 23/24/1
f 26/27/1 27/28/1 25/29/1
f 28/30/1 29/31/1 27/28/1
f 30/32/1 31/33/1 29/31/1
f 32/34/1 33/35/1 31/33/1
f 34/36/1 35/37/1 33/35/1
f 36/38/1 37/39/1 35/37/1
f 38/40/1 39/41/1 37/39/1
f 40/42/1 41/43/1 39/41/1
f 42/44/1 43/45/1 41/46/1
f 44/47/1 45/48/1 43/45/1
f 46/49/1 47/50/1 45/48/1
f 48/51/1 49/52/1 47/50/1
f 50/53/1 51/54/1 49/52/1
f 52/55/1 53/56/1 51/54/1
f 54/57/1 55/58/1 53/56/1
f 56/59/1 57/60/1 55/58/1
f 58/61/1 59/62/1 57/63/1
f 60/64/1 61/65/1 59/62/1
f 54/66/2 38/67/2 22/68/2
f 62/69/1 63/70/1 61/65/1
f 64/71/1 1/3/1 63/70/1
f 15/72/3 31/73/3 47/74/3
f 2/1/1 4/4/1 3/2/1
f 4/4/1 6/6/1 5/5/1
f 6/6/1 8/8/1 7/7/1
f 8/8/1 10/10/1 9/9/1
f 10/10/1 12/75/1 11/11/1
f 12/12/1 14/15/1 13/13/1
f 14/15/1 16/17/1 15/16/1
f 16/17/1 18/19/1 17/18/1
f 18/19/1 20/21/1 19/20/1
f 20/21/1 22/23/1 21/22/1
f 22/23/1 24/25/1 23/24/1
f 24/25/1 26/76/1 25/26/1
f 26/27/1 28/30/1 27/28/1
f 28/30/1 30/32/1 29/31/1
f 30/32/1 32/34/1 31/33/1
f 32/34/1 34/36/1 33/35/1
f 34/36/1 36/38/1 35/37/1
f 36/38/1 38/40/1 37/39/1
f 38/40/1 40/42/1 39/41/1
f 40/42/1 42/77/1 41/43/1
f 42/44/1 44/47/1 43/45/1
f 44/47/1 46/49/1 45/48/1
f 46/49/1 48/51/1 47/50/1
f 48/51/1 50/53/1 49/52/1
f 50/53/1 52/55/1 51/54/1
f 52/55/1 54/57/1 53/56/1
f 54/57/1 56/59/1 55/58/1
f 56/59/1 58/78/1 57/60/1
f 58/61/1 60/64/1 59/62/1
f 60/64/1 62/69/1 61/65/1
f 6/79/2 4/80/2 2/81/2
f 2/81/2 64/82/2 6/79/2
f 64/82/2 62/83/2 6/79/2
f 62/83/2 60/84/2 58/85/2
f 58/85/2 56/86/2 54/66/2
f 54/66/2 52/87/2 50/88/2
f 50/88/2 48/89/2 54/66/2
f 48/89/2 46/90/2 54/66/2
f 46/90/2 44/91/2 38/67/2
f 44/91/2 42/92/2 38/67/2
f 42/92/2 40/93/2 38/67/2
f 38/67/2 36/94/2 34/95/2
f 34/95/2 32/96/2 30/97/2
f 30/97/2 28/98/2 26/99/2
f 26/99/2 24/100/2 22/68/2
f 22/68/2 20/101/2 18/102/2
f 18/102/2 16/103/2 22/68/2
f 16/103/2 14/104/2 22/68/2
f 14/104/2 12/105/2 10/106/2
f 10/106/2 8/107/2 6/79/2
f 62/83/2 58/85/2 6/79/2
f 58/85/2 54/66/2 6/79/2
f 38/67/2 34/95/2 22/68/2
f 34/95/2 30/97/2 22/68/2
f 30/97/2 26/99/2 22/68/2
f 14/104/2 10/106/2 22/68/2
f 10/106/2 6/79/2 22/68/2
f 54/66/2 46/90/2 38/67/2
f 6/79/2 54/66/2 22/68/2
f 62/69/1 64/71/1 63/70/1
f 64/71/1 2/1/1 1/3/1
f 63/108/3 1/109/3 3/110/3
f 3/110/3 5/111/3 7/112/3
f 7/112/3 9/113/3 11/114/3
f 11/114/3 13/115/3 7/112/3
f 13/115/3 15/72/3 7/112/3
f 15/72/3 17/116/3 19/117/3
f 19/117/3 21/118/3 15/72/3
f 21/118/3 23/119/3 15/72/3
f 23/119/3 25/120/3 31/73/3
f 25/120/3 27/121/3 31/73/3
f 27/121/3 29/122/3 31/73/3
f 31/73/3 33/123/3 35/124/3
f 35/124/3 37/125/3 39/126/3
f 39/126/3 41/127/3 43/128/3
f 43/128/3 45/129/3 47/74/3
f 47/74/3 49/130/3 51/131/3
f 51/131/3 53/132/3 55/133/3
f 55/133/3 57/134/3 63/108/3
f 57/134/3 59/135/3 63/108/3
f 59/135/3 61/136/3 63/108/3
f 63/108/3 3/110/3 7/112/3
f 31/73/3 35/124/3 47/74/3
f 35/124/3 39/126/3 47/74/3
f 39/126/3 43/128/3 47/74/3
f 47/74/3 51/131/3 63/108/3
f 51/131/3 55/133/3 63/108/3
f 63/108/3 7/112/3 15/72/3
f 15/72/3 23/119/3 31/73/3
f 63/108/3 15/72/3 47/74/3
